:SAMPLES-PER-SECOND 30
:FULLY-SPECIFIED
:DEGREES
618
root  -17.8695 37.0509 5.7773 -176.315 -83.5824 163.691
RightUpLeg  -19.8226 -7.60808 -4.50308
RightLeg  16.7743 0.412077 -0.0147203
RightFoot  8.78021 -0.0817957 0.698124
RightToes  -8.73116e-010 0 -3.6325e-017
Spine  17.5271 -2.97029 2.15064
Spine1  10.6684 -2.83743 -0.016132
HEad  -6.66076 6.1295 -6.54821
LeftShoulder1  -0.338183 4.3592 -33.3964
LeftArm  -8.93933 10.7247 -32.4811
LeftForeArm  77.1876 -79.487 -85.6852
LeftHand  -0.109476 -0.791399 2.15995
RightShoulder  -0.790772 -5.71984 29.0404
RightArm  -6.53066 -20.7461 32.4954
RightForeArm  117.487 71.4793 143.484
RightHand  -0.585283 5.28593 -6.66832
LeftUpLeg  26.6876 5.76437 4.24354
LeftLeg  21.9651 -6.06723 -2.37437
LeftFoot  -26.2958 -0.337616 -3.72175
LeftToes  -5.63919e-011 3.32596e-011 1.92487e-011
619
root  -19.5165 36.6843 5.44909 169.047 -83.3036 178.798
RightUpLeg  -22.7165 -7.96497 -2.61611
RightLeg  26.0583 1.6767 0.683248
RightFoot  6.89611 0.20051 -0.993049
RightToes  -8.73116e-010 0 -3.6325e-017
Spine  17.6961 -3.72903 6.52647
Spine1  11.2507 -2.29755 -1.56003
HEad  -7.28837 5.51328 -6.92738
LeftShoulder1  -0.266619 4.17818 -33.403
LeftArm  -8.57268 11.5342 -32.7033
LeftForeArm  75.0932 -79.4552 -83.4435
LeftHand  -0.109974 -1.54536 1.99361
RightShoulder  -0.871282 -5.91545 29.5304
RightArm  -6.63422 -19.7744 31.5052
RightForeArm  117.18 71.8223 142.706
RightHand  -0.511687 5.41122 -5.80601
LeftUpLeg  24.2891 4.77256 6.19329
LeftLeg  31.3715 -5.51626 -3.30392
LeftFoot  -24.1387 -0.814256 -8.96025
LeftToes  -5.63919e-011 3.32596e-011 1.92487e-011
620
root  -21.0295 36.4829 5.11303 158.558 -83.8608 -168.779
RightUpLeg  -25.2946 -11.1494 -0.885352
RightLeg  32.0877 3.13507 1.84717
RightFoot  3.33426 0.408126 -2.96323
RightToes  -8.73116e-010 0 -3.6325e-017
Spine  16.344 -4.52012 9.41198
Spine1  12.3168 -2.55102 -1.12999
HEad  -7.86337 5.96912 -7.7033
LeftShoulder1  -0.234181 4.09293 -33.6242
LeftArm  -8.38364 12.27 -33.0575
LeftForeArm  74.9541 -79.451 -83.3426
LeftHand  -0.131422 -1.11152 2.46405
RightShoulder  -0.759581 -5.64058 28.8981
RightArm  -6.92691 -18.8551 31.3419
RightForeArm  114.9 72.1507 141.645
RightHand  -0.624456 5.21491 -7.13463
LeftUpLeg  16.9468 4.93585 8.50106
LeftLeg  44.1619 -3.87692 -3.50575
LeftFoot  -14.5317 -0.324328 -13.4413
LeftToes  -5.63919e-011 3.32596e-011 1.92487e-011
621
root  -22.3861 36.3984 4.60218 140.31 -84.007 -150.565
RightUpLeg  -24.5238 -12.3823 0.834619
RightLeg  36.0409 2.81591 1.9246
RightFoot  -0.976354 0.305483 -3.43384
RightToes  -8.73116e-010 0 -3.6325e-017
Spine  18.3797 -4.74257 10.4828
Spine1  11.7523 -2.90175 1.11919
HEad  -8.41078 5.79478 -7.85376
LeftShoulder1  -0.181167 3.95927 -33.571
LeftArm  -8.07321 12.0722 -33.8282
LeftForeArm  74.4569 -79.4431 -82.7128
LeftHand  -0.154925 -1.39194 2.79625
RightShoulder  -0.690997 -5.4708 28.453
RightArm  -7.41285 -17.4388 30.8244
RightForeArm  114.386 72.3815 141.031
RightHand  -0.59655 5.56809 -6.62578
LeftUpLeg  9.30816 5.28114 11.2237
LeftLeg  57.1079 -0.501282 -0.215429
LeftFoot  1.80996 0.943795 -9.2527
LeftToes  -5.63919e-011 3.32596e-011 1.92487e-011
622
root  -23.7169 36.3831 4.19457 121.141 -84.3361 -132.099
RightUpLeg  -22.4772 -13.5946 1.68313
RightLeg  38.9467 2.22621 1.64341
RightFoot  -4.69667 0.194237 -3.8984
RightToes  -8.73116e-010 0 -3.6325e-017
Spine  19.8418 -5.41432 12.2772
Spine1  12.2547 -3.08359 1.34605
HEad  -9.1344 4.66935 -7.42623
LeftShoulder1  -0.0299339 3.58074 -32.8228
LeftArm  -7.99719 11.0214 -34.827
LeftForeArm  73.3526 -79.4189 -81.3988
LeftHand  -0.163479 -1.50408 2.90458
RightShoulder  -0.709142 -5.51389 28.6094
RightArm  -8.06008 -15.7751 30.2069
RightForeArm  113.242 72.6984 140.094
RightHand  -0.607508 5.34367 -6.8731
LeftUpLeg  2.43602 4.98732 12.2449
LeftLeg  66.8425 1.04968 3.17821
LeftFoot  10.2718 0.257109 -1.25569
LeftToes  -5.63919e-011 3.32596e-011 1.92487e-011
623
root  -25.0684 36.565 3.79701 122.711 -84.8024 -133.668
RightUpLeg  -20.6619 -13.5692 1.1405
RightLeg  40.5018 1.919 1.46
RightFoot  -7.64762 0.0830418 -4.11039
RightToes  -8.73116e-010 0 -3.6325e-017
Spine  20.3649 -5.19505 12.3906
Spine1  12.5545 -2.65289 0.743175
HEad  -9.27022 4.10123 -6.80728
LeftShoulder1  0.0359146 3.41084 -32.414
LeftArm  -7.73662 9.61608 -35.2263
LeftForeArm  70.445 -79.3223 -78.6884
LeftHand  -0.164102 -1.55668 2.8986
RightShoulder  -0.648561 -5.35545 28.3079
RightArm  -8.76795 -14.4422 30.5765
RightForeArm  111.027 73.2907 138.204
RightHand  -0.592151 5.88146 -6.41021
LeftUpLeg  -3.92038 6.54243 11.308
LeftLeg  72.7421 -0.0291901 0.880051
LeftFoot  5.65253 0.139772 -1.24975
LeftToes  -5.63919e-011 3.32596e-011 1.92487e-011
